<?xml version="1.0" standalone="no"?>
<!DOCTYPE svg PUBLIC "-//W3C//DTD SVG 20010904//EN"
 "http://www.w3.org/TR/2001/REC-SVG-20010904/DTD/svg10.dtd">
<svg version="1.0" xmlns="http://www.w3.org/2000/svg"
 width="352.000000pt" height="251.000000pt" viewBox="0 0 352.000000 251.000000"
 preserveAspectRatio="xMidYMid meet">
<metadata>
Created by potrace 1.16, written by Peter Selinger 2001-2019
</metadata>
<g transform="translate(0.000000,251.000000) scale(0.100000,-0.100000)"
fill="#000000" stroke="none">
<path d="M1166 1745 c-16 -14 -33 -25 -37 -25 -14 0 -49 -43 -42 -53 3 -5 25
-7 49 -3 l44 6 0 -45 c0 -50 2 -49 -88 -45 -35 1 -47 -4 -73 -29 -31 -31 -49
-39 -49 -21 0 17 -48 11 -62 -8 -7 -10 -26 -22 -41 -26 -16 -4 -31 -17 -37
-31 -7 -19 -17 -25 -38 -25 -36 0 -84 -36 -80 -59 3 -10 -8 -22 -26 -31 -17
-8 -32 -23 -34 -33 -8 -38 130 -64 172 -32 25 19 53 19 90 0 18 -9 56 -15 103
-15 l74 0 -3 -32 c-3 -29 -6 -33 -33 -33 -43 0 -52 -10 -52 -53 0 -49 -9 -65
-33 -57 -25 8 -50 -33 -29 -46 8 -5 17 -9 22 -9 4 0 7 -13 7 -30 0 -24 -4 -30
-21 -30 -17 0 -20 -4 -15 -22 3 -13 6 -26 6 -30 0 -5 11 -8 25 -8 18 0 28 -7
35 -26 6 -14 8 -30 4 -35 -3 -5 -2 -18 1 -30 5 -16 14 -20 39 -18 40 4 56 -6
56 -37 0 -13 6 -24 13 -24 6 0 22 -3 34 -6 16 -4 23 0 28 15 7 24 55 30 55 7
0 -20 16 -29 40 -21 12 4 20 15 20 29 0 25 40 49 65 40 23 -9 47 16 41 41 -7
27 19 65 43 65 22 0 35 47 16 58 -20 12 -25 51 -8 60 21 12 13 56 -12 61 -28
5 -46 32 -39 60 7 31 -23 66 -43 49 -18 -15 -63 8 -63 34 0 15 8 17 48 17 26
-1 61 1 78 5 19 4 44 1 67 -9 29 -12 69 -15 162 -14 122 2 150 10 100 29 -13
5 -35 25 -47 44 -15 23 -34 38 -53 42 -35 8 -45 19 -45 54 0 18 -8 29 -28 38
-16 7 -34 23 -40 37 -14 30 -48 33 -55 5 -3 -13 -14 -20 -30 -20 -14 0 -32 -7
-41 -15 -23 -23 -26 -19 -26 38 l0 52 -52 17 c-67 22 -72 17 -11 -10 l49 -21
-2 -63 c-1 -35 -2 -75 -3 -90 l-1 -28 -49 19 c-27 10 -61 16 -75 14 -23 -5
-26 -2 -26 26 0 64 24 161 40 161 12 0 13 2 1 9 -9 6 -11 18 -7 34 4 16 1 27
-7 30 -21 8 -2 17 44 21 24 2 47 4 52 5 13 2 7 21 -7 21 -8 0 -16 4 -18 8 -4
10 -94 72 -105 72 -4 0 -21 -11 -37 -25z m26 -220 c4 -22 7 -65 7 -96 l1 -56
-29 5 c-15 2 -42 -3 -59 -12 -58 -30 -62 -26 -62 73 l0 89 48 20 c68 30 85 25
94 -23z m78 -338 c61 -22 78 -36 101 -84 42 -87 19 -200 -53 -253 -29 -22 -43
-25 -120 -25 -86 0 -88 1 -123 35 -43 42 -75 105 -75 150 0 42 31 108 67 142
47 44 136 59 203 35z"/>
<path d="M1180 1109 c0 -49 -4 -75 -15 -85 -13 -14 -13 -17 1 -32 9 -9 13 -17
8 -18 -5 -1 -22 -5 -39 -9 l-30 -7 25 -19 c14 -10 32 -19 40 -20 8 0 3 -5 -12
-11 -48 -17 -32 -30 30 -24 57 6 57 6 25 -9 -37 -17 -43 -35 -12 -35 53 0 131
62 95 76 -11 4 -14 17 -9 54 5 40 2 54 -17 80 -12 17 -28 29 -35 26 -17 -6
-25 15 -25 65 0 28 -4 39 -15 39 -12 0 -15 -15 -15 -71z"/>
<path d="M2200 1370 l0 -30 88 0 88 0 0 -35 0 -35 -88 0 -88 0 0 -30 0 -30
235 0 235 0 0 30 0 30 -90 0 -90 0 0 35 0 35 90 0 90 0 0 30 0 30 -235 0 -235
0 0 -30z"/>
</g>
</svg>
